<?xml version="1.0" encoding="UTF-8"?>
<!DOCTYPE svg PUBLIC "-//W3C//DTD SVG 1.1//EN" "http://www.w3.org/Graphics/SVG/1.1/DTD/svg11.dtd">
<!-- Creator: CorelDRAW X8 -->
<svg xmlns="http://www.w3.org/2000/svg" xml:space="preserve" width="2.18867in" height="2.74309in" version="1.1" style="shape-rendering:geometricPrecision; text-rendering:geometricPrecision; image-rendering:optimizeQuality; fill-rule:evenodd; clip-rule:evenodd"
viewBox="0 0 4263 5343"
 xmlns:xlink="http://www.w3.org/1999/xlink">
 <defs>
  <style type="text/css">
   <![CDATA[
    .fil0 {fill:black}
    .fil1 {fill:#FCFCFC}
   ]]>
  </style>
 </defs>
 <g id="Layer_x0020_1">
  <metadata id="CorelCorpID_0Corel-Layer"/>
  <g id="_1785364298896">
   <path class="fil0" d="M2619 338c-264,-2 -1234,-37 -1401,10l-6 142c45,15 89,17 117,26 109,36 88,-25 85,377l212 5 1 -354 2175 2 1 1575 -2172 10 -5 -756 -205 13 -6 721c-77,126 -227,96 -204,323 18,180 143,218 332,219 361,4 725,-2 1086,-4 -6,393 60,338 -162,547 -91,85 -312,258 -354,376 129,277 325,-154 505,-240l19 223c185,41 191,-35 192,-214 160,59 299,417 484,295 65,-148 -157,-298 -250,-391 -221,-219 -239,-136 -232,-596l824 3c103,0 760,78 576,-359 -49,-116 -92,-76 -186,-155l0 -1611c155,-17 234,10 191,-160 -7,-3 -16,-17 -20,-11 -4,7 -16,-8 -22,-9l-1360 -9c-34,-206 68,-364 -178,-332 -55,110 -39,175 -37,334z"/>
   <path class="fil0" d="M794 1293c-30,-184 -17,-127 34,-253l-146 1c37,94 55,114 36,242 -44,-19 -176,-211 -195,-255 -475,109 -357,313 -496,1131 -35,206 -80,352 178,308 86,-159 93,-464 174,-621 71,442 -136,1420 -34,1791l203 28c141,-291 111,-837 203,-1175 175,619 1,1328 418,1140 68,-298 -103,-1514 9,-2321 537,-56 968,30 835,-287 -335,-41 -678,-22 -1016,-23 -32,90 -140,230 -203,294z"/>
   <path class="fil0" d="M4064 5285c61,-212 95,-575 -192,-575 -133,1 -152,106 -347,53 -116,-31 -176,-116 -323,4 -108,89 -153,509 79,553 203,38 618,31 783,-35z"/>
   <path class="fil0" d="M1189 5285c237,91 607,58 875,19 -53,-207 -43,-340 -5,-542 -44,-16 -94,-46 -142,-51 -120,-12 -64,10 -166,44 -204,69 -215,-31 -347,-44 -309,-30 -270,355 -215,574z"/>
   <path class="fil0" d="M189 5286c238,90 609,56 874,18 -49,-236 -51,-310 -5,-544 -191,-66 -116,-78 -306,-7 -182,67 -199,-14 -327,-38 -316,-59 -299,347 -236,571z"/>
   <path class="fil0" d="M2191 5285c236,92 608,51 874,20 -49,-228 -51,-319 -2,-546 -201,-62 -109,-80 -309,-6 -183,68 -201,-14 -327,-38 -318,-60 -292,345 -236,570z"/>
   <path class="fil0" d="M522 4051c-403,164 -190,762 247,611 370,-127 194,-790 -247,-611z"/>
   <path class="fil0" d="M1524 4052c-176,73 -255,214 -195,410 46,155 219,278 442,201 366,-127 193,-792 -247,-611z"/>
   <path class="fil0" d="M3495 4050c-394,153 -208,750 228,617 397,-120 213,-788 -228,-617z"/>
   <path class="fil0" d="M2526 4052c-429,184 -156,779 265,603 347,-146 159,-784 -265,-603z"/>
   <path class="fil1" d="M1407 2380c19,65 -68,79 245,74l1733 0c145,0 578,43 661,-47 -47,-75 29,-43 -118,-60 -26,-3 -130,1 -164,1 -425,6 -2228,-44 -2357,32z"/>
   <path class="fil0" d="M627 371c-355,167 -117,689 250,531 317,-136 130,-711 -250,-531z"/>
  </g>
 </g>
</svg>
