<?xml version="1.0" encoding="UTF-8"?>
<!DOCTYPE svg PUBLIC "-//W3C//DTD SVG 1.1//EN" "http://www.w3.org/Graphics/SVG/1.1/DTD/svg11.dtd">
<!-- Creator: CorelDRAW X8 -->
<svg xmlns="http://www.w3.org/2000/svg" xml:space="preserve" width="0.591539in" height="0.873988in" version="1.1" style="shape-rendering:geometricPrecision; text-rendering:geometricPrecision; image-rendering:optimizeQuality; fill-rule:evenodd; clip-rule:evenodd"
viewBox="0 0 600 887"
 xmlns:xlink="http://www.w3.org/1999/xlink">
 <defs>
  <style type="text/css">
   <![CDATA[
    .str0 {stroke:#00CCFF;stroke-width:0.271587}
    .str1 {stroke:#000066;stroke-width:0.627045}
    .fil1 {fill:#000066}
    .fil0 {fill:#00CCFF}
   ]]>
  </style>
 </defs>
 <g id="Layer_x0020_1">
  <metadata id="CorelCorpID_0Corel-Layer"/>
  <g id="_1960700287424">
   <path class="fil0 str0" d="M43 638l253 -456c5,-8 7,-13 10,-23 17,-56 0,-113 -47,-159l-248 461c-8,23 -9,20 -11,43 -3,65 17,118 43,134l0 0z"/>
   <path class="fil1 str1" d="M322 277c105,-154 242,-90 274,62 1,5 3,11 3,17 2,26 -2,38 -7,55l-254 475c-41,-38 -59,-88 -47,-139 3,-15 3,-15 8,-24 78,-158 154,-277 184,-340 1,-3 2,-5 3,-6 1,-4 2,-6 2,-9 1,-2 1,-4 1,-7 1,-42 -39,-57 -61,-25 -3,6 -7,11 -10,16 -35,53 -85,162 -162,290 -4,6 -5,10 -10,14 -47,50 -96,54 -148,28l224 -407 0 0z"/>
  </g>
 </g>
</svg>
